{
	"asset":{
		"generator":"Khronos glTF Blender I/O v3.6.28",
		"version":"2.0"
	},
	"scene":0,
	"scenes":[
		{
			"name":"Scene",
			"nodes":[
				0,
				1,
				2
			]
		}
	],
	"nodes":[
		{
			"mesh":0,
			"name":"Suzanne",
			"rotation":[
				-0.2391321063041687,
				-0.03115263767540455,
				0.12536965310573578,
				0.9623554348945618
			],
			"scale":[
				1.1299999952316284,
				1,
				1.1100000143051147
			],
			"translation":[
				-0.4227474331855774,
				-1.0118780136108398,
				-0.43970414996147156
			]
		},
		{
			"mesh":1,
			"name":"Suzanne.001",
			"rotation":[
				-0.23755745589733124,
				-0.09242505580186844,
				0.5360569953918457,
				0.8047775626182556
			],
			"scale":[
				1,
				1.53000009059906,
				1
			],
			"translation":[
				0.41986554861068726,
				0.8046103119850159,
				-0.43970414996147156
			]
		},
		{
			"mesh":2,
			"name":"Suzanne.002",
			"rotation":[
				-0.2185659557580948,
				-0.14961643517017365,
				0.4351845383644104,
				0.86049884557724
			],
			"scale":[
				1,
				0.8899999856948853,
				1
			],
			"translation":[
				-0.23315247893333435,
				0,
				0.6603407859802246
			]
		}
	],
	"meshes":[
		{
			"name":"Suzanne.004",
			"primitives":[
				{
					"attributes":{
						"POSITION":0,
						"NORMAL":1,
						"TEXCOORD_0":2
					},
					"indices":3
				}
			]
		},
		{
			"name":"Suzanne.005",
			"primitives":[
				{
					"attributes":{
						"POSITION":4,
						"NORMAL":5,
						"TEXCOORD_0":6
					},
					"indices":3
				}
			]
		},
		{
			"name":"Suzanne.006",
			"primitives":[
				{
					"attributes":{
						"POSITION":7,
						"NORMAL":8,
						"TEXCOORD_0":9
					},
					"indices":3
				}
			]
		}
	],
	"accessors":[
		{
			"bufferView":0,
			"componentType":5126,
			"count":1966,
			"max":[
				1.3671875,
				0.8515625,
				0.984375
			],
			"min":[
				-1.3671875,
				-0.8515625,
				-0.984375
			],
			"type":"VEC3"
		},
		{
			"bufferView":1,
			"componentType":5126,
			"count":1966,
			"type":"VEC3"
		},
		{
			"bufferView":2,
			"componentType":5126,
			"count":1966,
			"type":"VEC2"
		},
		{
			"bufferView":3,
			"componentType":5123,
			"count":2904,
			"type":"SCALAR"
		},
		{
			"bufferView":4,
			"componentType":5126,
			"count":1966,
			"max":[
				1.3671875,
				0.8515625,
				0.984375
			],
			"min":[
				-1.3671875,
				-0.8515625,
				-0.984375
			],
			"type":"VEC3"
		},
		{
			"bufferView":5,
			"componentType":5126,
			"count":1966,
			"type":"VEC3"
		},
		{
			"bufferView":6,
			"componentType":5126,
			"count":1966,
			"type":"VEC2"
		},
		{
			"bufferView":7,
			"componentType":5126,
			"count":1966,
			"max":[
				1.3671875,
				0.8515625,
				0.984375
			],
			"min":[
				-1.3671875,
				-0.8515625,
				-0.984375
			],
			"type":"VEC3"
		},
		{
			"bufferView":8,
			"componentType":5126,
			"count":1966,
			"type":"VEC3"
		},
		{
			"bufferView":9,
			"componentType":5126,
			"count":1966,
			"type":"VEC2"
		}
	],
	"bufferViews":[
		{
			"buffer":0,
			"byteLength":23592,
			"byteOffset":0,
			"target":34962
		},
		{
			"buffer":0,
			"byteLength":23592,
			"byteOffset":23592,
			"target":34962
		},
		{
			"buffer":0,
			"byteLength":15728,
			"byteOffset":47184,
			"target":34962
		},
		{
			"buffer":0,
			"byteLength":5808,
			"byteOffset":62912,
			"target":34963
		},
		{
			"buffer":0,
			"byteLength":23592,
			"byteOffset":68720,
			"target":34962
		},
		{
			"buffer":0,
			"byteLength":23592,
			"byteOffset":92312,
			"target":34962
		},
		{
			"buffer":0,
			"byteLength":15728,
			"byteOffset":115904,
			"target":34962
		},
		{
			"buffer":0,
			"byteLength":23592,
			"byteOffset":131632,
			"target":34962
		},
		{
			"buffer":0,
			"byteLength":23592,
			"byteOffset":155224,
			"target":34962
		},
		{
			"buffer":0,
			"byteLength":15728,
			"byteOffset":178816,
			"target":34962
		}
	],
	"buffers":[
		{
			"byteLength":194544,
			"uri":"data:application/octet-stream;base64,"
		}
	]
}
